<?xml version="1.0" encoding="utf-8"?>
<!-- Generator: Adobe Illustrator 18.0.0, SVG Export Plug-In . SVG Version: 6.00 Build 0)  -->
<!DOCTYPE svg PUBLIC "-//W3C//DTD SVG 1.1//EN" "http://www.w3.org/Graphics/SVG/1.1/DTD/svg11.dtd">
<svg version="1.1" id="Layer_1" xmlns="http://www.w3.org/2000/svg" xmlns:xlink="http://www.w3.org/1999/xlink" x="0px" y="0px"
	 width="1400px" height="980px" viewBox="0 0 1400 980" enable-background="new 0 0 1400 980" xml:space="preserve">
<rect fill="#FFFFFF" width="1400" height="980"/>
<g>
	<g>
		<path fill="#1F2933" d="M639.5,120.6H189.7c-9.7,0-17.7-7.9-17.7-17.7V83.9c0-9.7,7.9-17.7,17.7-17.7h449.7
			c9.7,0,17.7,7.9,17.7,17.7v19.1C657.1,112.7,649.2,120.6,639.5,120.6z M189.7,73.2c-5.9,0-10.7,4.8-10.7,10.7v19.1
			c0,5.9,4.8,10.7,10.7,10.7h449.7c5.9,0,10.7-4.8,10.7-10.7V83.9c0-5.9-4.8-10.7-10.7-10.7H189.7z"/>
	</g>
	<g>
		<g>
			<polygon fill="#1F2933" points="638.6,101.3 616.3,101.3 616.3,97.3 634.6,97.3 634.6,81.1 638.6,81.1 			"/>
		</g>
		<g>
			<polygon fill="#1F2933" points="621.5,107.1 613.5,99.1 621.2,91.4 624,94.3 619.2,99.1 624.3,104.3 			"/>
		</g>
	</g>
	<g>
		<path fill="#1F2933" d="M217.4,103.5h-0.8l-5.2-12.1l-5.2,12.1h-0.8L199,85.4h3.4l3.8,11.7l4.7-11.7h0.8l4.9,11.7l4.1-11.7h3.1
			L217.4,103.5z"/>
		<path fill="#1F2933" d="M242.6,103.5h-0.8l-5.2-12.1l-5.2,12.1h-0.8l-6.4-18.1h3.4l3.8,11.7l4.7-11.7h0.8l4.9,11.7l4.1-11.7h3.1
			L242.6,103.5z"/>
		<path fill="#1F2933" d="M267.9,103.5h-0.8l-5.2-12.1l-5.2,12.1h-0.8l-6.4-18.1h3.4l3.8,11.7l4.7-11.7h0.8l4.9,11.7l4.1-11.7h3.1
			L267.9,103.5z"/>
		<path fill="#1F2933" d="M276.8,98.5c0.7,0,1.3,0.2,1.8,0.7c0.5,0.5,0.7,1.1,0.7,1.8c0,0.7-0.2,1.3-0.7,1.8
			c-0.5,0.5-1.1,0.7-1.8,0.7c-0.7,0-1.3-0.2-1.8-0.7c-0.5-0.5-0.7-1.1-0.7-1.8c0-0.7,0.2-1.3,0.7-1.8
			C275.5,98.8,276.1,98.5,276.8,98.5z"/>
	</g>
</g>
<g>
	<g>
		<g>
			<path fill="#1F2933" d="M175.6,428.4c0,14.5,11.7,26.2,26.2,26.2h427.7c14.5,0,26.2-11.7,26.2-26.2v-163h-480V428.4z"/>
			<path fill="#1F2933" d="M629.5,458.1H201.8c-16.4,0-29.7-13.3-29.7-29.7V261.9h487v166.5C659.1,444.8,645.8,458.1,629.5,458.1z
				 M179.1,268.9v159.5c0,12.5,10.2,22.7,22.7,22.7h427.7c12.5,0,22.7-10.2,22.7-22.7V268.9H179.1z"/>
		</g>
		<g>
			<path fill="#1F2933" d="M659.1,268.9h-487v-76c0-16.4,13.3-29.7,29.7-29.7h427.7c16.4,0,29.7,13.3,29.7,29.7V268.9z M179.1,261.9
				h473v-69c0-12.5-10.2-22.7-22.7-22.7H201.8c-12.5,0-22.7,10.2-22.7,22.7V261.9z"/>
		</g>
	</g>
	<g>
		<g>
			<path fill="#1F2933" d="M206.2,209.8c-6,0-11-4.9-11-11s4.9-11,11-11s11,4.9,11,11S212.2,209.8,206.2,209.8z M206.2,194.9
				c-2.2,0-4,1.8-4,4s1.8,4,4,4c2.2,0,4-1.8,4-4S208.3,194.9,206.2,194.9z"/>
		</g>
		<g>
			<path fill="#1F2933" d="M232,209.8c-6,0-11-4.9-11-11s4.9-11,11-11s11,4.9,11,11S238.1,209.8,232,209.8z M232,194.9
				c-2.2,0-4,1.8-4,4s1.8,4,4,4s4-1.8,4-4S234.2,194.9,232,194.9z"/>
		</g>
		<g>
			<path fill="#1F2933" d="M257.9,209.8c-6,0-11-4.9-11-11s4.9-11,11-11s11,4.9,11,11S263.9,209.8,257.9,209.8z M257.9,194.9
				c-2.2,0-4,1.8-4,4c0,2.2,1.8,4,4,4s4-1.8,4-4C261.9,196.6,260.1,194.9,257.9,194.9z"/>
		</g>
	</g>
	<g>
		<path fill="#1F2933" d="M534.6,214.2H284.3v-31.1h250.2V214.2z M291.3,207.2h236.2v-17.1H291.3V207.2z"/>
	</g>
	<g>
		<g>
			<path fill="#1F2933" d="M568.8,198.6v9.3h12.6v-9.3H568.8z M574.3,203.3h-2.9v-2.9h2.9V203.3z M578.9,203.3H576v-2.9h2.9V203.3z"
				/>
		</g>
		<g>
			<polygon fill="#1F2933" points="579,190 575.1,190 571.2,190 566,196.1 575.1,196.1 584.2,196.1 			"/>
		</g>
		<g>
			<path fill="#1F2933" d="M575.1,216.5c-9.9,0-17.9-8-17.9-17.9s8-17.9,17.9-17.9s17.9,8,17.9,17.9S585,216.5,575.1,216.5z
				 M575.1,184.7c-7.7,0-13.9,6.2-13.9,13.9s6.2,13.9,13.9,13.9c7.7,0,13.9-6.2,13.9-13.9S582.8,184.7,575.1,184.7z"/>
		</g>
	</g>
	<g>
		<g>
			<path fill="#1F2933" d="M616.2,216.5c-9.9,0-17.9-8-17.9-17.9s8-17.9,17.9-17.9s17.9,8,17.9,17.9S626.1,216.5,616.2,216.5z
				 M616.2,184.7c-7.7,0-13.9,6.2-13.9,13.9s6.2,13.9,13.9,13.9s13.9-6.2,13.9-13.9S623.9,184.7,616.2,184.7z"/>
		</g>
		<g>
			<g>
				<path fill="#1F2933" d="M616.2,208.5c-5.2,0-9.4-4.2-9.4-9.4c0-2.2,0.8-4.4,2.2-6.1c1.8-2.1,4.4-3.3,7.1-3.3
					c2.1,0,4,0.7,5.7,1.9l-2.4,3.2c-0.9-0.7-2.1-1.1-3.2-1.1c-1.6,0-3.1,0.7-4.1,1.9c-0.8,1-1.3,2.2-1.3,3.5c0,3,2.4,5.4,5.4,5.4
					s5.4-2.4,5.4-5.4h4C625.6,204.3,621.4,208.5,616.2,208.5z"/>
			</g>
			<g>
				<polygon fill="#1F2933" points="617.5,187.1 623.6,193.1 617.5,198.1 				"/>
			</g>
		</g>
	</g>
	<g>
		<path fill="#1F2933" d="M307.4,203.2H307l-2.4-5.6l-2.4,5.6h-0.4l-2.9-8.4h1.6l1.8,5.4l2.2-5.4h0.4l2.3,5.4l1.9-5.4h1.4
			L307.4,203.2z"/>
		<path fill="#1F2933" d="M319.1,203.2h-0.4l-2.4-5.6l-2.4,5.6h-0.4l-2.9-8.4h1.6l1.8,5.4l2.2-5.4h0.4l2.3,5.4l1.9-5.4h1.4
			L319.1,203.2z"/>
		<path fill="#1F2933" d="M330.8,203.2h-0.4l-2.4-5.6l-2.4,5.6h-0.4l-2.9-8.4h1.6l1.8,5.4l2.2-5.4h0.4l2.3,5.4l1.9-5.4h1.4
			L330.8,203.2z"/>
		<path fill="#1F2933" d="M334.9,200.9c0.3,0,0.6,0.1,0.8,0.3c0.2,0.2,0.3,0.5,0.3,0.8c0,0.3-0.1,0.6-0.3,0.8
			c-0.2,0.2-0.5,0.3-0.8,0.3c-0.3,0-0.6-0.1-0.8-0.3s-0.3-0.5-0.3-0.8c0-0.3,0.1-0.6,0.3-0.8C334.3,201,334.6,200.9,334.9,200.9z"/>
	</g>
</g>
<g>
	<g>
		<path fill="#1F2933" d="M1223.3,128.7H731.6V66.2h491.8V128.7z M738.6,121.7h477.8V73.2H738.6V121.7z"/>
	</g>
	<g>
		<path fill="#1F2933" d="M1223.3,128.7H1090V66.2h133.4V128.7z M1097,121.7h119.4V73.2H1097V121.7z"/>
	</g>
	<g>
		<path fill="#1F2933" d="M1120.8,104.7l0.9-2.4c0.5,0.4,1.1,0.6,1.8,0.9s1.4,0.4,1.9,0.4c1,0,1.8-0.3,2.4-0.8s0.9-1.2,0.9-2.1
			c0-0.6-0.2-1.2-0.5-1.8c-0.3-0.5-1.2-1.1-2.5-1.8l-1.5-0.7c-1.3-0.6-2.2-1.3-2.7-2.1c-0.5-0.8-0.8-1.8-0.8-3
			c0-1.4,0.5-2.6,1.5-3.5s2.3-1.4,3.8-1.4c2.1,0,3.5,0.3,4.3,1l-0.8,2.2c-0.3-0.2-0.9-0.5-1.6-0.7c-0.7-0.2-1.3-0.3-1.9-0.3
			c-0.9,0-1.6,0.2-2.1,0.7s-0.8,1.1-0.8,1.9c0,0.5,0.1,0.9,0.3,1.3s0.4,0.7,0.8,1c0.3,0.3,1,0.6,2,1.1l1.5,0.7
			c1.3,0.6,2.2,1.3,2.7,2.2c0.5,0.8,0.8,1.9,0.8,3.2c0,1.4-0.6,2.6-1.7,3.6c-1.1,1-2.6,1.5-4.5,1.5
			C1123.4,105.9,1122,105.5,1120.8,104.7z"/>
		<path fill="#1F2933" d="M1145.6,98.9h-9.9c0,1.6,0.4,2.8,1.3,3.7c0.8,0.8,1.8,1.1,3,1.1c1.4,0,2.6-0.4,3.5-1.2l1,1.8
			c-0.4,0.4-1,0.7-1.7,1c-1,0.4-2.1,0.5-3.3,0.5c-1.7,0-3.2-0.6-4.4-1.8c-1.3-1.3-2-3-2-5.2c0-2.3,0.7-4.1,2.1-5.4
			c1.2-1.2,2.7-1.8,4.4-1.8c2,0,3.5,0.6,4.6,1.7c1.1,1.1,1.6,2.5,1.6,4.2C1145.8,98,1145.8,98.5,1145.6,98.9z M1139.7,93.6
			c-1.1,0-2,0.4-2.7,1.1c-0.7,0.7-1.1,1.5-1.2,2.5h7.6c0-1-0.3-1.8-0.9-2.5C1141.8,94,1140.9,93.6,1139.7,93.6z"/>
		<path fill="#1F2933" d="M1156.2,104c-1,1.2-2.5,1.8-4.5,1.8c-1.1,0-2-0.4-2.8-1.2c-0.8-0.8-1.2-1.8-1.2-2.9c0-1.4,0.6-2.6,1.8-3.5
			s2.8-1.4,4.7-1.4c0.5,0,1.1,0.1,1.7,0.3c0-2.2-1-3.3-3-3.3c-1.5,0-2.7,0.4-3.5,1.2l-1-2c0.5-0.4,1.1-0.7,1.9-1
			c0.8-0.3,1.6-0.4,2.3-0.4c2,0,3.4,0.5,4.3,1.4c0.9,0.9,1.4,2.3,1.4,4.3v4.9c0,1.2,0.4,2,1.1,2.4v1.2c-1,0-1.7-0.1-2.2-0.4
			C1156.7,105.1,1156.4,104.6,1156.2,104z M1155.9,98.8c-0.8-0.2-1.3-0.3-1.6-0.3c-1.2,0-2.2,0.3-3,0.9c-0.8,0.6-1.2,1.4-1.2,2.2
			c0,1.4,0.8,2.1,2.5,2.1c1.2,0,2.3-0.6,3.3-1.8V98.8z"/>
		<path fill="#1F2933" d="M1169.6,94.2c-0.5-0.4-1.1-0.6-1.6-0.6c-0.9,0-1.6,0.4-2.3,1.2s-1,1.8-1,2.9v7.9h-2.4V91.8h2.4V94
			c0.9-1.6,2.2-2.4,4-2.4c0.4,0,1.1,0.1,1.9,0.2L1169.6,94.2z"/>
		<path fill="#1F2933" d="M1182.7,93l-1.2,1.7c-0.2-0.2-0.7-0.5-1.3-0.7s-1.2-0.3-1.9-0.3c-1.3,0-2.4,0.5-3.2,1.4s-1.2,2.2-1.2,3.8
			c0,1.6,0.4,2.8,1.2,3.7s1.9,1.3,3.3,1.3c1.1,0,2.2-0.4,3.3-1.3l1,2.1c-1.3,0.8-2.9,1.3-4.9,1.3c-1.9,0-3.4-0.6-4.6-1.9
			c-1.2-1.3-1.8-3-1.8-5.1c0-2.2,0.6-3.9,1.9-5.3c1.3-1.3,3-2,5.2-2c0.7,0,1.5,0.1,2.3,0.4S1182.4,92.6,1182.7,93z"/>
		<path fill="#1F2933" d="M1193.9,105.6v-8.6c0-1-0.3-1.8-0.8-2.4c-0.5-0.6-1.2-0.9-2.1-0.9c-0.6,0-1.2,0.2-1.8,0.5
			c-0.6,0.3-1,0.7-1.4,1.2v10.2h-2.4V86.2h2.4v7.1c0.3-0.5,0.8-0.9,1.6-1.3c0.7-0.3,1.5-0.5,2.2-0.5c1.5,0,2.6,0.5,3.4,1.4
			c0.8,1,1.2,2.3,1.2,3.9v8.6H1193.9z"/>
	</g>
	<g>
		<path fill="#1F2933" d="M772.8,106H772l-4.8-11.1l-4.8,11.1h-0.8l-5.8-16.6h3.1l3.5,10.7l4.3-10.7h0.8l4.5,10.7l3.7-10.7h2.8
			L772.8,106z"/>
		<path fill="#1F2933" d="M795.9,106h-0.8l-4.8-11.1l-4.8,11.1h-0.8l-5.8-16.6h3.1l3.5,10.7l4.3-10.7h0.8l4.5,10.7l3.7-10.7h2.8
			L795.9,106z"/>
		<path fill="#1F2933" d="M819,106h-0.8l-4.8-11.1l-4.8,11.1H808l-5.8-16.6h3.1l3.5,10.7l4.3-10.7h0.8l4.5,10.7l3.7-10.7h2.8
			L819,106z"/>
		<path fill="#1F2933" d="M827.2,101.4c0.6,0,1.2,0.2,1.6,0.7s0.7,1,0.7,1.6s-0.2,1.2-0.7,1.6s-1,0.7-1.6,0.7
			c-0.6,0-1.2-0.2-1.6-0.7s-0.7-1-0.7-1.6s0.2-1.2,0.7-1.6S826.5,101.4,827.2,101.4z"/>
	</g>
	<g>
		<g>
			<polygon fill="#1F2933" points="1263.8,132.7 1206.4,110.7 1228.4,168 1235.4,150.3 1252.8,167.7 1258.1,162.3 1263.5,157 
				1246.1,139.6 			"/>
		</g>
	</g>
</g>
<g>
	<g>
		<rect x="735.1" y="275.4" fill="#1F2933" width="481.4" height="179.1"/>
		<path fill="#1F2933" d="M1219.9,458.1H731.6V271.9h488.4V458.1z M738.6,451.1h474.4V278.9H738.6V451.1z"/>
	</g>
	<g>
		<path fill="#1F2933" d="M1219.9,278.9H731.5v-96.1h473.9l-0.1,3.6c0,0.2,0,0.4,0,0.6c0,3,1.2,5.8,3.3,7.9c2.1,2.1,4.9,3.3,7.9,3.3
			h3.5V278.9z M738.5,271.9h474.4v-67c-3.5-0.7-6.8-2.4-9.4-5c-2.8-2.8-4.5-6.3-5.1-10.1H738.5V271.9z"/>
	</g>
	<g>
		<g>
			<path fill="#1F2933" d="M1216.4,205.3c-4.9,0-9.4-1.9-12.9-5.3c-3.4-3.4-5.3-8-5.3-12.9c0-10,8.2-18.2,18.2-18.2
				c4.9,0,9.4,1.9,12.9,5.3c3.4,3.4,5.3,8,5.3,12.9C1234.6,197.1,1226.5,205.3,1216.4,205.3z M1216.4,175.9c-6.2,0-11.2,5-11.2,11.2
				c0,3,1.2,5.8,3.3,7.9c2.1,2.1,4.9,3.3,7.9,3.3h0c6.2,0,11.2-5,11.2-11.2c0-3-1.2-5.8-3.3-7.9
				C1222.2,177.1,1219.4,175.9,1216.4,175.9z"/>
		</g>
		<g>
			
				<rect x="1200.3" y="183.6" transform="matrix(0.7071 0.7071 -0.7071 0.7071 488.5911 -805.3663)" fill="#1F2933" width="32.2" height="7"/>
		</g>
		<g>
			
				<rect x="1212.9" y="171" transform="matrix(0.707 0.7072 -0.7072 0.707 488.6676 -805.4222)" fill="#1F2933" width="7" height="32.2"/>
		</g>
	</g>
	<g>
		<g>
			
				<rect x="1202.1" y="197.3" transform="matrix(0.707 0.7072 -0.7072 0.707 493.1721 -794.5465)" fill="#1F2933" width="7" height="1.4"/>
		</g>
	</g>
	<g>
		<path fill="#1F2933" d="M1139.9,258.5H825.2v-56.2h314.7V258.5z M832.2,251.5h300.7v-42.2H832.2V251.5z"/>
	</g>
	<g>
		<g>
			<path fill="#1F2933" d="M856.2,246c-8.6,0-15.6-7-15.6-15.6c0-8.6,7-15.6,15.6-15.6s15.6,7,15.6,15.6
				C871.8,239,864.8,246,856.2,246z M856.2,218.9c-6.4,0-11.6,5.2-11.6,11.6c0,6.4,5.2,11.6,11.6,11.6s11.6-5.2,11.6-11.6
				C867.8,224,862.6,218.9,856.2,218.9z"/>
		</g>
		<g>
			<path fill="#1F2933" d="M856.2,245.9c-4.7,0-8.3-6.7-8.3-15.5c0-8.9,3.6-15.5,8.3-15.5s8.3,6.7,8.3,15.5
				C864.5,239.3,861,245.9,856.2,245.9z M856.2,218.9c-1.7,0-4.3,4.6-4.3,11.5c0,6.9,2.6,11.5,4.3,11.5s4.3-4.6,4.3-11.5
				C860.5,223.5,857.9,218.9,856.2,218.9z"/>
		</g>
		<g>
			<rect x="842.7" y="228.4" fill="#1F2933" width="27.1" height="4"/>
		</g>
	</g>
	<g>
		<g>
			<g>
				<polygon fill="#1F2933" points="794.6,247.8 789.6,242.8 803.2,229.3 788.3,214.4 793.2,209.5 813.1,229.3 				"/>
			</g>
			<g>
				<rect x="790.8" y="225.1" fill="#1F2933" width="17.3" height="7"/>
			</g>
		</g>
		<g>
			<g>
				<polygon fill="#1F2933" points="768.2,247.8 749.7,229.3 769.6,209.5 774.5,214.4 759.6,229.3 773.2,242.8 				"/>
			</g>
			<g>
				<rect x="754.7" y="225.8" fill="#1F2933" width="17.3" height="7"/>
			</g>
		</g>
	</g>
</g>
<g>
	<g>
		<path fill="#1F2933" d="M254.2,881.1c-1-1.1-2.4-1.6-4.1-1.6c-1.6,0-3,0.5-4.1,1.6c-1.1,1-1.6,2.3-1.8,3.8h11.4
			C255.6,883.3,255.2,882.1,254.2,881.1z M271.9,886.9c-1.8,0-3.3,0.5-4.5,1.4c-1.2,1-1.8,2.1-1.8,3.4c0,2.2,1.3,3.2,3.8,3.2
			c1.9,0,3.5-0.9,4.9-2.7v-5C273.2,887.1,272.4,886.9,271.9,886.9z M271.9,886.9c-1.8,0-3.3,0.5-4.5,1.4c-1.2,1-1.8,2.1-1.8,3.4
			c0,2.2,1.3,3.2,3.8,3.2c1.9,0,3.5-0.9,4.9-2.7v-5C273.2,887.1,272.4,886.9,271.9,886.9z M254.2,881.1c-1-1.1-2.4-1.6-4.1-1.6
			c-1.6,0-3,0.5-4.1,1.6c-1.1,1-1.6,2.3-1.8,3.8h11.4C255.6,883.3,255.2,882.1,254.2,881.1z M254.2,881.1c-1-1.1-2.4-1.6-4.1-1.6
			c-1.6,0-3,0.5-4.1,1.6c-1.1,1-1.6,2.3-1.8,3.8h11.4C255.6,883.3,255.2,882.1,254.2,881.1z M271.9,886.9c-1.8,0-3.3,0.5-4.5,1.4
			c-1.2,1-1.8,2.1-1.8,3.4c0,2.2,1.3,3.2,3.8,3.2c1.9,0,3.5-0.9,4.9-2.7v-5C273.2,887.1,272.4,886.9,271.9,886.9z M271.9,886.9
			c-1.8,0-3.3,0.5-4.5,1.4c-1.2,1-1.8,2.1-1.8,3.4c0,2.2,1.3,3.2,3.8,3.2c1.9,0,3.5-0.9,4.9-2.7v-5
			C273.2,887.1,272.4,886.9,271.9,886.9z M254.2,881.1c-1-1.1-2.4-1.6-4.1-1.6c-1.6,0-3,0.5-4.1,1.6c-1.1,1-1.6,2.3-1.8,3.8h11.4
			C255.6,883.3,255.2,882.1,254.2,881.1z M550.3,882.5c0-7.6,3.1-14.5,8.1-19.5s11.9-8.1,19.5-8.1H203.2c-7.6,0-14.5,3.1-19.5,8.1
			c-5,5-8.1,11.9-8.1,19.5c0,15.2,12.4,27.6,27.6,27.6h374.7C562.6,910.1,550.3,897.7,550.3,882.5z M235,895.8
			c-1.7,1.5-4,2.2-6.8,2.2c-2.5,0-4.6-0.6-6.4-1.8l1.4-3.6c0.7,0.5,1.6,1,2.7,1.3c1.1,0.4,2,0.5,2.9,0.5c1.5,0,2.7-0.4,3.6-1.2
			c0.9-0.8,1.4-1.9,1.4-3.2c0-1-0.2-1.9-0.8-2.7c-0.5-0.8-1.8-1.7-3.8-2.7l-2.3-1.1c-1.9-0.9-3.3-2-4-3.2c-0.8-1.2-1.1-2.7-1.1-4.5
			c0-2.1,0.7-3.9,2.2-5.3c1.5-1.4,3.4-2.1,5.7-2.1c3.1,0,5.3,0.5,6.5,1.5l-1.1,3.4c-0.5-0.4-1.3-0.7-2.3-1.1c-1.1-0.4-2-0.5-2.9-0.5
			c-1.3,0-2.3,0.4-3.1,1.1s-1.1,1.7-1.1,2.9c0,0.7,0.1,1.4,0.4,2c0.3,0.6,0.7,1.1,1.1,1.5c0.5,0.4,1.5,1,2.9,1.7l2.3,1.1
			c1.9,0.9,3.3,2,4,3.3c0.8,1.3,1.2,2.9,1.2,4.9C237.5,892.5,236.7,894.3,235,895.8z M259,887.5h-14.8c0,2.4,0.7,4.3,2,5.6
			c1.2,1.1,2.7,1.7,4.5,1.7c2.1,0,3.8-0.6,5.2-1.9l1.5,2.7c-0.6,0.6-1.4,1.1-2.6,1.5c-1.4,0.5-3.1,0.8-4.9,0.8
			c-2.6,0-4.8-0.9-6.6-2.7c-2-2-3-4.6-3-7.9c0-3.4,1-6.2,3.1-8.2c1.8-1.9,4-2.8,6.5-2.8c2.9,0,5.2,0.8,6.9,2.5
			c1.6,1.6,2.4,3.7,2.4,6.4C259.2,886.1,259.2,886.8,259,887.5z M279.6,897.9c-1.5,0-2.6-0.2-3.3-0.6c-0.7-0.4-1.3-1.1-1.6-2.1
			c-1.5,1.9-3.7,2.8-6.7,2.8c-1.6,0-3-0.6-4.2-1.8c-1.2-1.2-1.8-2.7-1.8-4.4c0-2.1,0.9-3.9,2.7-5.3c1.8-1.5,4.2-2.2,7-2.2
			c0.8,0,1.6,0.2,2.6,0.5c0-3.4-1.5-5-4.4-5c-2.3,0-4,0.6-5.3,1.9l-1.5-3.1c0.7-0.6,1.7-1.1,2.9-1.5c1.2-0.4,2.4-0.6,3.5-0.6
			c3,0,5.2,0.7,6.5,2.1c1.4,1.4,2,3.5,2,6.5v7.5c0,1.8,0.5,3,1.6,3.7V897.9z M294.9,880.3c-0.8-0.6-1.6-0.8-2.4-0.8
			c-1.3,0-2.4,0.6-3.4,1.8c-1,1.2-1.4,2.7-1.4,4.4v11.9H284v-20.8h3.6v3.3c1.3-2.5,3.3-3.7,5.9-3.7c0.7,0,1.6,0.1,2.8,0.3
			L294.9,880.3z M307.4,897.9c-2.8,0-5.1-1-6.9-2.8c-1.8-1.9-2.8-4.5-2.8-7.7c0-3.3,0.9-6,2.8-8c1.9-2,4.5-3,7.8-3
			c1.1,0,2.2,0.2,3.5,0.7c1.2,0.5,2.1,0.9,2.7,1.4l-1.8,2.6c-0.4-0.4-1-0.7-2-1.1c-0.9-0.3-1.9-0.5-2.8-0.5c-2,0-3.6,0.7-4.7,2.1
			c-1.2,1.4-1.8,3.3-1.8,5.8s0.6,4.3,1.8,5.6c1.2,1.3,2.8,1.9,5,1.9c1.6,0,3.3-0.7,4.9-1.9l1.4,3.1
			C312.7,897.3,310.2,897.9,307.4,897.9z M334.8,897.5h-3.6v-13.1c0-1.5-0.4-2.8-1.1-3.7c-0.8-0.9-1.8-1.3-3.2-1.3
			c-0.9,0-1.8,0.3-2.7,0.8c-0.9,0.5-1.6,1.1-2,1.8v15.5h-3.7v-29.3h3.7V879c0.5-0.8,1.3-1.4,2.3-1.9c1.1-0.5,2.2-0.8,3.4-0.8
			c2.2,0,3.9,0.7,5.1,2.2c1.2,1.5,1.9,3.4,1.9,5.9V897.5z M267.4,888.4c-1.2,1-1.8,2.1-1.8,3.4c0,2.2,1.3,3.2,3.8,3.2
			c1.9,0,3.5-0.9,4.9-2.7v-5c-1.2-0.2-2-0.4-2.4-0.4C270.1,886.9,268.6,887.4,267.4,888.4z M250.1,879.5c-1.6,0-3,0.5-4.1,1.6
			c-1.1,1-1.6,2.3-1.8,3.8h11.4c0-1.5-0.5-2.7-1.4-3.7C253.2,880,251.9,879.5,250.1,879.5z M254.2,881.1c-1-1.1-2.4-1.6-4.1-1.6
			c-1.6,0-3,0.5-4.1,1.6c-1.1,1-1.6,2.3-1.8,3.8h11.4C255.6,883.3,255.2,882.1,254.2,881.1z M271.9,886.9c-1.8,0-3.3,0.5-4.5,1.4
			c-1.2,1-1.8,2.1-1.8,3.4c0,2.2,1.3,3.2,3.8,3.2c1.9,0,3.5-0.9,4.9-2.7v-5C273.2,887.1,272.4,886.9,271.9,886.9z M271.9,886.9
			c-1.8,0-3.3,0.5-4.5,1.4c-1.2,1-1.8,2.1-1.8,3.4c0,2.2,1.3,3.2,3.8,3.2c1.9,0,3.5-0.9,4.9-2.7v-5
			C273.2,887.1,272.4,886.9,271.9,886.9z M254.2,881.1c-1-1.1-2.4-1.6-4.1-1.6c-1.6,0-3,0.5-4.1,1.6c-1.1,1-1.6,2.3-1.8,3.8h11.4
			C255.6,883.3,255.2,882.1,254.2,881.1z M254.2,881.1c-1-1.1-2.4-1.6-4.1-1.6c-1.6,0-3,0.5-4.1,1.6c-1.1,1-1.6,2.3-1.8,3.8h11.4
			C255.6,883.3,255.2,882.1,254.2,881.1z M254.2,881.1c-1-1.1-2.4-1.6-4.1-1.6c-1.6,0-3,0.5-4.1,1.6c-1.1,1-1.6,2.3-1.8,3.8h11.4
			C255.6,883.3,255.2,882.1,254.2,881.1z"/>
	</g>
	<g>
		<path fill="#1F2933" d="M618,913.6h-40.1c-17.2,0-31.1-14-31.1-31.1s14-31.1,31.1-31.1H618c17.2,0,31.1,14,31.1,31.1
			S635.2,913.6,618,913.6z M577.9,858.3c-13.3,0-24.1,10.8-24.1,24.1s10.8,24.1,24.1,24.1H618c13.3,0,24.1-10.8,24.1-24.1
			s-10.8-24.1-24.1-24.1H577.9z"/>
	</g>
	<g>
		<g>
			<path fill="#1F2933" d="M594.3,889.4c-3.3,0-6.4-1.3-8.7-3.6c-2.3-2.3-3.6-5.4-3.6-8.7c0-3.3,1.3-6.4,3.6-8.7
				c2.3-2.3,5.4-3.6,8.7-3.6c3.3,0,6.4,1.3,8.7,3.6c2.3,2.3,3.6,5.4,3.6,8.7c0,3.3-1.3,6.4-3.6,8.7
				C600.7,888.1,597.6,889.4,594.3,889.4z M594.3,871.8c-1.4,0-2.7,0.5-3.7,1.5c-1,1-1.5,2.3-1.5,3.7c0,1.4,0.5,2.7,1.5,3.7
				s2.3,1.5,3.7,1.5c1.4,0,2.7-0.5,3.7-1.5c1-1,1.6-2.3,1.6-3.7s-0.5-2.7-1.5-3.7C597.1,872.3,595.8,871.8,594.3,871.8z"/>
		</g>
		<g>
			
				<rect x="597.8" y="886.4" transform="matrix(0.7071 0.7071 -0.7071 0.7071 807.1022 -168.7195)" fill="#1F2933" width="18.9" height="7"/>
		</g>
	</g>
</g>
<g>
	<g>
		<path fill="#1F2933" d="M1217.9,601.1H866.6l-15.7-18.9h-91.5v18.9h-29.9V505h488.4V601.1z M869.9,594.1h341V512H736.5v82.1h15.9
			v-18.9h101.8L869.9,594.1z"/>
	</g>
	<g>
		<path fill="#1F2933" d="M1107.8,560.7H833.1v-36.2h274.7V560.7z M840.1,553.7h260.7v-22.2H840.1V553.7z"/>
	</g>
	<g>
		<g>
			<g>
				<polygon fill="#1F2933" points="794,553.2 810,543.1 794,532 				"/>
				<path fill="#1F2933" d="M790.5,559.5v-34.2l25.8,18L790.5,559.5z M797.5,538.7v8.2l6.2-3.9L797.5,538.7z"/>
			</g>
		</g>
		<g>
			<g>
				<polygon fill="#1F2933" points="772.6,532 756.6,543.1 772.6,553.2 				"/>
				<path fill="#1F2933" d="M776.1,559.5l-25.8-16.2l25.8-18V559.5z M763,543l6.2,3.9v-8.2L763,543z"/>
			</g>
		</g>
	</g>
	<g>
		<g>
			<path fill="#1F2933" d="M1135.8,546.4c-6,0-11-4.9-11-11c0-6,4.9-11,11-11c6,0,11,4.9,11,11
				C1146.7,541.5,1141.8,546.4,1135.8,546.4z M1135.8,531.5c-2.2,0-4,1.8-4,4c0,2.2,1.8,4,4,4c2.2,0,4-1.8,4-4
				C1139.7,533.2,1138,531.5,1135.8,531.5z"/>
		</g>
		<g>
			<path fill="#1F2933" d="M1161.7,546.4c-6,0-11-4.9-11-11c0-6,4.9-11,11-11c6,0,11,4.9,11,11
				C1172.6,541.5,1167.7,546.4,1161.7,546.4z M1161.7,531.5c-2.2,0-4,1.8-4,4c0,2.2,1.8,4,4,4c2.2,0,4-1.8,4-4
				C1165.6,533.2,1163.8,531.5,1161.7,531.5z"/>
		</g>
		<g>
			<path fill="#1F2933" d="M1187.5,546.4c-6,0-11-4.9-11-11c0-6,4.9-11,11-11c6,0,11,4.9,11,11
				C1198.5,541.5,1193.6,546.4,1187.5,546.4z M1187.5,531.5c-2.2,0-4,1.8-4,4c0,2.2,1.8,4,4,4c2.2,0,4-1.8,4-4
				C1191.5,533.2,1189.7,531.5,1187.5,531.5z"/>
		</g>
	</g>
	<g>
		<path fill="#1F2933" d="M1217.9,810.1H729.5v-216h22.9v-18.9h101.8l15.7,18.9h348V810.1z M736.5,803.1h474.4v-202H866.6
			l-15.7-18.9h-91.5v18.9h-22.9V803.1z"/>
	</g>
	<g>
		<polyline fill="#1F2933" points="880.5,597.6 880.5,578.7 978.7,578.7 997.8,597.8 		"/>
		<polygon fill="#1F2933" points="995.3,600.3 977.2,582.2 884,582.2 884,597.6 877,597.6 877,575.2 980.1,575.2 1000.3,595.3 		"/>
	</g>
	<g>
		<path fill="#1F2933" d="M858.7,547.8h-0.5l-2.9-6.7l-2.9,6.7H852l-3.5-10.1h1.9l2.1,6.5l2.6-6.5h0.5l2.7,6.5l2.3-6.5h1.7
			L858.7,547.8z"/>
		<path fill="#1F2933" d="M872.8,547.8h-0.5l-2.9-6.7l-2.9,6.7h-0.5l-3.5-10.1h1.9l2.1,6.5l2.6-6.5h0.5l2.7,6.5l2.3-6.5h1.7
			L872.8,547.8z"/>
		<path fill="#1F2933" d="M886.8,547.8h-0.5l-2.9-6.7l-2.9,6.7h-0.5l-3.5-10.1h1.9l2.1,6.5l2.6-6.5h0.5l2.7,6.5l2.3-6.5h1.7
			L886.8,547.8z"/>
		<path fill="#1F2933" d="M891.8,545.1c0.4,0,0.7,0.1,1,0.4c0.3,0.3,0.4,0.6,0.4,1c0,0.4-0.1,0.7-0.4,1s-0.6,0.4-1,0.4
			s-0.7-0.1-1-0.4c-0.3-0.3-0.4-0.6-0.4-1c0-0.4,0.1-0.7,0.4-1C891,545.2,891.4,545.1,891.8,545.1z"/>
	</g>
</g>
<g>
	<g>
		<path fill="#1F2933" d="M1217.2,911H729.5v-56.2h487.7V911z M736.5,904h473.7v-42.2H736.5V904z"/>
	</g>
	<g>
		<g>
			<path fill="#1F2933" d="M760.5,898.5c-8.6,0-15.6-7-15.6-15.6s7-15.6,15.6-15.6s15.6,7,15.6,15.6S769.1,898.5,760.5,898.5z
				 M760.5,871.4c-6.4,0-11.6,5.2-11.6,11.6s5.2,11.6,11.6,11.6s11.6-5.2,11.6-11.6S766.9,871.4,760.5,871.4z"/>
		</g>
		<g>
			<path fill="#1F2933" d="M760.5,898.5c-4.7,0-8.3-6.7-8.3-15.5s3.6-15.5,8.3-15.5s8.3,6.7,8.3,15.5S765.3,898.5,760.5,898.5z
				 M760.5,871.4c-1.7,0-4.3,4.6-4.3,11.5s2.6,11.5,4.3,11.5c1.7,0,4.3-4.6,4.3-11.5S762.2,871.4,760.5,871.4z"/>
		</g>
		<g>
			<rect x="747" y="880.9" fill="#1F2933" width="27.1" height="4"/>
		</g>
	</g>
	<g>
		<path fill="#1F2933" d="M813.6,892.2h-0.9l-5.6-12.9l-5.5,12.9h-0.9l-6.8-19.4h3.6l4.1,12.4l5-12.4h0.9l5.2,12.4l4.4-12.4h3.3
			L813.6,892.2z"/>
		<path fill="#1F2933" d="M840.6,892.2h-0.9l-5.6-12.9l-5.5,12.9h-0.9l-6.8-19.4h3.6l4.1,12.4l5-12.4h0.9l5.2,12.4l4.4-12.4h3.3
			L840.6,892.2z"/>
		<path fill="#1F2933" d="M867.6,892.2h-0.9l-5.6-12.9l-5.5,12.9h-0.9l-6.8-19.4h3.6l4.1,12.4l5-12.4h0.9l5.2,12.4l4.4-12.4h3.3
			L867.6,892.2z"/>
		<path fill="#1F2933" d="M877.1,886.9c0.7,0,1.4,0.3,1.9,0.8s0.8,1.1,0.8,1.9c0,0.7-0.3,1.4-0.8,1.9c-0.5,0.5-1.1,0.8-1.9,0.8
			c-0.7,0-1.4-0.3-1.9-0.8c-0.5-0.5-0.8-1.2-0.8-1.9c0-0.7,0.3-1.4,0.8-1.9C875.7,887.1,876.4,886.9,877.1,886.9z"/>
	</g>
</g>
<g>
	<g>
		<g>
			<path fill="#1F2933" d="M653.6,508.5v53.9H315.8v-26.1h-95.1c0-8.5-6.9-15.4-15.4-15.4c-8.5,0-15.4,6.9-15.4,15.4
				c0,8.5,6.9,15.4,15.4,15.4h0v10.6h-29.7v-53.9H653.6z"/>
			<path fill="#1F2933" d="M657.1,565.8H312.3v-26.1h-95.1v-3.5c0-6.6-5.3-11.9-11.9-11.9c-6.6,0-11.9,5.3-11.9,11.9
				c0,6.6,5.3,11.9,11.9,11.9l3.5,0l0,17.6h-36.7V505h485V565.8z M319.3,558.8h330.8V512h-471v46.9h22.7v-4
				c-8.8-1.7-15.4-9.4-15.4-18.6c0-10.4,8.5-18.9,18.9-18.9c9.2,0,16.9,6.7,18.6,15.4h95.5V558.8z"/>
		</g>
		<g>
			<path fill="#1F2933" d="M657.1,810.1h-485V558.8h29.7v-10.6h3.5c6.6,0,11.9-5.3,11.9-11.9v-3.5h102.1v26.1h337.8V810.1z
				 M179.1,803.1h471V565.8H312.3v-26.1h-88.4c-1.4,7.6-7.5,13.7-15.1,15.1v11h-29.7V803.1z"/>
		</g>
		<g>
			<path fill="#1F2933" d="M571.5,620.6h-345v-32.5h345V620.6z M233.5,613.6h331v-18.5h-331V613.6z"/>
		</g>
		<g>
			<g>
				<polygon fill="#1F2933" points="613,609.1 598,609.1 598,605.1 609,605.1 609,595.4 613,595.4 				"/>
			</g>
			<g>
				<polygon fill="#1F2933" points="602.5,614.4 595.2,607 602.4,599.7 605.3,602.5 600.8,607 605.3,611.5 				"/>
			</g>
		</g>
		<g>
			<path fill="#1F2933" d="M605.3,621.8c-9.7,0-17.5-7.9-17.5-17.5c0-9.7,7.9-17.5,17.5-17.5s17.5,7.9,17.5,17.5
				C622.9,614,615,621.8,605.3,621.8z M605.3,590.8c-7.5,0-13.5,6.1-13.5,13.5s6.1,13.5,13.5,13.5s13.5-6.1,13.5-13.5
				S612.8,590.8,605.3,590.8z"/>
		</g>
		<g>
			<path fill="#1F2933" d="M233.5,620.6h-33.3v-32.5h33.3V620.6z M207.2,613.6h19.3v-18.5h-19.3V613.6z"/>
		</g>
		<g>
			<path fill="#1F2933" d="M250.8,609.7h-0.5l-2.9-6.7l-2.9,6.7h-0.5l-3.5-10.1h1.9l2.1,6.5l2.6-6.5h0.5l2.7,6.5l2.3-6.5h1.7
				L250.8,609.7z"/>
			<path fill="#1F2933" d="M264.8,609.7h-0.5l-2.9-6.7l-2.9,6.7h-0.5l-3.5-10.1h1.9l2.1,6.5l2.6-6.5h0.5l2.7,6.5l2.3-6.5h1.7
				L264.8,609.7z"/>
			<path fill="#1F2933" d="M278.9,609.7h-0.5l-2.9-6.7l-2.9,6.7h-0.5l-3.5-10.1h1.9l2.1,6.5l2.6-6.5h0.5l2.7,6.5l2.3-6.5h1.7
				L278.9,609.7z"/>
			<path fill="#1F2933" d="M283.8,606.9c0.4,0,0.7,0.1,1,0.4c0.3,0.3,0.4,0.6,0.4,1c0,0.4-0.1,0.7-0.4,1s-0.6,0.4-1,0.4
				s-0.7-0.1-1-0.4c-0.3-0.3-0.4-0.6-0.4-1c0-0.4,0.1-0.7,0.4-1C283.1,607,283.4,606.9,283.8,606.9z"/>
		</g>
	</g>
	<g>
		<path fill="#1F2933" d="M216.8,611.9c-4.3,0-7.7-3.5-7.7-7.7s3.5-7.7,7.7-7.7s7.7,3.5,7.7,7.7S221.1,611.9,216.8,611.9z
			 M216.8,600.4c-2,0-3.7,1.7-3.7,3.7c0,2,1.7,3.7,3.7,3.7s3.7-1.7,3.7-3.7C220.5,602.1,218.9,600.4,216.8,600.4z"/>
	</g>
	<g>
		
			<rect x="189.4" y="533.2" transform="matrix(0.7071 0.7071 -0.7071 0.7071 439.5202 12.4044)" fill="#1F2933" width="30.8" height="7"/>
	</g>
	<g>
		
			<rect x="201.3" y="521.3" transform="matrix(0.7072 0.707 -0.707 0.7072 439.4685 12.3813)" fill="#1F2933" width="7" height="30.8"/>
	</g>
</g>
</svg>
